<svg width="25" height="25" viewBox="0 0 25 25" fill="none" xmlns="http://www.w3.org/2000/svg">
<path d="M11.4491 17.2796C11.3179 17.2798 11.1878 17.2542 11.0665 17.2041C10.9452 17.154 10.8349 17.0804 10.7421 16.9876L6.50012 12.7446C6.40455 12.6524 6.32829 12.5421 6.2758 12.4201C6.2233 12.2982 6.19563 12.167 6.19438 12.0342C6.19313 11.9014 6.21834 11.7697 6.26854 11.6468C6.31873 11.5239 6.3929 11.4122 6.48673 11.3182C6.58055 11.2242 6.69215 11.1499 6.81501 11.0995C6.93787 11.0492 7.06953 11.0238 7.20231 11.0248C7.33509 11.0259 7.46633 11.0534 7.58837 11.1057C7.71041 11.158 7.82081 11.2341 7.91312 11.3296L11.4481 14.8646L17.8131 8.50158C18.0006 8.31394 18.255 8.20847 18.5203 8.20837C18.7855 8.20828 19.04 8.31357 19.2276 8.50108C19.4153 8.68858 19.5207 8.94295 19.5208 9.20822C19.5209 9.47349 19.4156 9.72794 19.2281 9.91558L12.1561 16.9876C12.0633 17.0804 11.9531 17.154 11.8317 17.2041C11.7104 17.2542 11.5804 17.2798 11.4491 17.2796Z" fill="#2FAB73"/>
</svg>
